<svg width="48" height="54" viewBox="0 0 48 54" fill="none" xmlns="http://www.w3.org/2000/svg">
<rect y="2" width="48" height="48" rx="5" fill="url(#paint0_linear_1_407)"/>
<path d="M33.386 21.19C33.386 22.7087 33.0347 24.0913 32.332 25.338C31.6293 26.562 30.5867 27.5367 29.204 28.262C27.844 28.9873 26.1893 29.35 24.24 29.35H21.248V37H13.7V12.928H24.24C27.1867 12.928 29.442 13.676 31.006 15.172C32.5927 16.668 33.386 18.674 33.386 21.19ZM23.39 23.4C24.954 23.4 25.736 22.6633 25.736 21.19C25.736 19.7167 24.954 18.98 23.39 18.98H21.248V23.4H23.39Z" fill="white"/>
<path d="M38.386 24.19C38.386 25.7087 38.0347 27.0913 37.332 28.338C36.6293 29.562 35.5867 30.5367 34.204 31.262C32.844 31.9873 31.1893 32.35 29.24 32.35H26.248V40H18.7V15.928H29.24C32.1867 15.928 34.442 16.676 36.006 18.172C37.5927 19.668 38.386 21.674 38.386 24.19ZM28.39 26.4C29.954 26.4 30.736 25.6633 30.736 24.19C30.736 22.7167 29.954 21.98 28.39 21.98H26.248V26.4H28.39Z" fill="#F70776"/>
<defs>
<linearGradient id="paint0_linear_1_407" x1="24" y1="2" x2="3" y2="50" gradientUnits="userSpaceOnUse">
<stop stop-color="#680747"/>
<stop offset="1" stop-color="#C3195D"/>
</linearGradient>
</defs>
</svg>
